<?xml version="1.0" encoding="utf-8" standalone="no"?>
<!DOCTYPE svg PUBLIC "-//W3C//DTD SVG 1.1//EN"
  "http://www.w3.org/Graphics/SVG/1.1/DTD/svg11.dtd">
<svg xmlns:xlink="http://www.w3.org/1999/xlink" width="478.55099pt" height="260.472685pt" viewBox="0 0 478.55099 260.472685" xmlns="http://www.w3.org/2000/svg" version="1.1">
 <metadata>
  <rdf:RDF xmlns:dc="http://purl.org/dc/elements/1.1/" xmlns:cc="http://creativecommons.org/ns#" xmlns:rdf="http://www.w3.org/1999/02/22-rdf-syntax-ns#">
   <cc:Work>
    <dc:type rdf:resource="http://purl.org/dc/dcmitype/StillImage"/>
    <dc:date>2024-05-05T17:44:13.456263</dc:date>
    <dc:format>image/svg+xml</dc:format>
    <dc:creator>
     <cc:Agent>
      <dc:title>Matplotlib v3.8.2, https://matplotlib.org/</dc:title>
     </cc:Agent>
    </dc:creator>
   </cc:Work>
  </rdf:RDF>
 </metadata>
 <defs>
  <style type="text/css">*{stroke-linejoin: round; stroke-linecap: butt}</style>
 </defs>
 <g id="figure_1">
  <g id="patch_1">
   <path d="M 0 260.472685 
L 478.55099 260.472685 
L 478.55099 0 
L 0 0 
z
" style="fill: #ffffff"/>
  </g>
  <g id="axes_1">
   <g id="patch_2">
    <path d="M 41.724707 88.441841 
L 110.77412 88.441841 
L 110.77412 20.111758 
L 41.724707 20.111758 
z
" style="fill: #ffffff"/>
   </g>
   <g id="matplotlib.axis_1">
    <g id="xtick_1">
     <g id="line2d_1">
      <defs>
       <path id="mb30b3debdc" d="M 0 0 
L 0 4.8 
" style="stroke: #000000"/>
      </defs>
      <g>
       <use xlink:href="#mb30b3debdc" x="41.724707" y="88.441841" style="stroke: #000000"/>
      </g>
     </g>
     <g id="text_1">
      <text style="font: 8px 'DejaVu Sans', 'Bitstream Vera Sans', 'Computer Modern Sans Serif', 'Lucida Grande', 'Verdana', 'Geneva', 'Lucid', 'Arial', 'Helvetica', 'Avant Garde', sans-serif; text-anchor: middle" x="41.724707" y="102.820591" transform="rotate(-0 41.724707 102.820591)">0.0</text>
     </g>
    </g>
    <g id="xtick_2">
     <g id="line2d_2">
      <g>
       <use xlink:href="#mb30b3debdc" x="76.249413" y="88.441841" style="stroke: #000000"/>
      </g>
     </g>
     <g id="text_2">
      <text style="font: 8px 'DejaVu Sans', 'Bitstream Vera Sans', 'Computer Modern Sans Serif', 'Lucida Grande', 'Verdana', 'Geneva', 'Lucid', 'Arial', 'Helvetica', 'Avant Garde', sans-serif; text-anchor: middle" x="76.249413" y="102.820591" transform="rotate(-0 76.249413 102.820591)">0.5</text>
     </g>
    </g>
    <g id="xtick_3">
     <g id="line2d_3">
      <g>
       <use xlink:href="#mb30b3debdc" x="110.77412" y="88.441841" style="stroke: #000000"/>
      </g>
     </g>
     <g id="text_3">
      <text style="font: 8px 'DejaVu Sans', 'Bitstream Vera Sans', 'Computer Modern Sans Serif', 'Lucida Grande', 'Verdana', 'Geneva', 'Lucid', 'Arial', 'Helvetica', 'Avant Garde', sans-serif; text-anchor: middle" x="110.77412" y="102.820591" transform="rotate(-0 110.77412 102.820591)">1.0</text>
     </g>
    </g>
   </g>
   <g id="matplotlib.axis_2">
    <g id="ytick_1">
     <g id="line2d_4">
      <defs>
       <path id="maf94978d97" d="M 0 0 
L -4.8 0 
" style="stroke: #000000"/>
      </defs>
      <g>
       <use xlink:href="#maf94978d97" x="41.724707" y="88.441841" style="stroke: #000000"/>
      </g>
     </g>
     <g id="text_4">
      <text style="font: 8px 'DejaVu Sans', 'Bitstream Vera Sans', 'Computer Modern Sans Serif', 'Lucida Grande', 'Verdana', 'Geneva', 'Lucid', 'Arial', 'Helvetica', 'Avant Garde', sans-serif; text-anchor: end" x="33.424707" y="91.481216" transform="rotate(-0 33.424707 91.481216)">0.00</text>
     </g>
    </g>
    <g id="ytick_2">
     <g id="line2d_5">
      <g>
       <use xlink:href="#maf94978d97" x="41.724707" y="71.35932" style="stroke: #000000"/>
      </g>
     </g>
     <g id="text_5">
      <text style="font: 8px 'DejaVu Sans', 'Bitstream Vera Sans', 'Computer Modern Sans Serif', 'Lucida Grande', 'Verdana', 'Geneva', 'Lucid', 'Arial', 'Helvetica', 'Avant Garde', sans-serif; text-anchor: end" x="33.424707" y="74.398695" transform="rotate(-0 33.424707 74.398695)">0.25</text>
     </g>
    </g>
    <g id="ytick_3">
     <g id="line2d_6">
      <g>
       <use xlink:href="#maf94978d97" x="41.724707" y="54.2768" style="stroke: #000000"/>
      </g>
     </g>
     <g id="text_6">
      <text style="font: 8px 'DejaVu Sans', 'Bitstream Vera Sans', 'Computer Modern Sans Serif', 'Lucida Grande', 'Verdana', 'Geneva', 'Lucid', 'Arial', 'Helvetica', 'Avant Garde', sans-serif; text-anchor: end" x="33.424707" y="57.316175" transform="rotate(-0 33.424707 57.316175)">0.50</text>
     </g>
    </g>
    <g id="ytick_4">
     <g id="line2d_7">
      <g>
       <use xlink:href="#maf94978d97" x="41.724707" y="37.194279" style="stroke: #000000"/>
      </g>
     </g>
     <g id="text_7">
      <text style="font: 8px 'DejaVu Sans', 'Bitstream Vera Sans', 'Computer Modern Sans Serif', 'Lucida Grande', 'Verdana', 'Geneva', 'Lucid', 'Arial', 'Helvetica', 'Avant Garde', sans-serif; text-anchor: end" x="33.424707" y="40.233654" transform="rotate(-0 33.424707 40.233654)">0.75</text>
     </g>
    </g>
    <g id="ytick_5">
     <g id="line2d_8">
      <g>
       <use xlink:href="#maf94978d97" x="41.724707" y="20.111758" style="stroke: #000000"/>
      </g>
     </g>
     <g id="text_8">
      <text style="font: 8px 'DejaVu Sans', 'Bitstream Vera Sans', 'Computer Modern Sans Serif', 'Lucida Grande', 'Verdana', 'Geneva', 'Lucid', 'Arial', 'Helvetica', 'Avant Garde', sans-serif; text-anchor: end" x="33.424707" y="23.151133" transform="rotate(-0 33.424707 23.151133)">1.00</text>
     </g>
    </g>
   </g>
   <g id="patch_3">
    <path d="M 41.724707 88.441841 
L 41.724707 20.111758 
" style="fill: none; stroke: #000000; stroke-linejoin: miter; stroke-linecap: square"/>
   </g>
   <g id="patch_4">
    <path d="M 110.77412 88.441841 
L 110.77412 20.111758 
" style="fill: none; stroke: #000000; stroke-linejoin: miter; stroke-linecap: square"/>
   </g>
   <g id="patch_5">
    <path d="M 41.724707 88.441841 
L 110.77412 88.441841 
" style="fill: none; stroke: #000000; stroke-linejoin: miter; stroke-linecap: square"/>
   </g>
   <g id="patch_6">
    <path d="M 41.724707 20.111758 
L 110.77412 20.111758 
" style="fill: none; stroke: #000000; stroke-linejoin: miter; stroke-linecap: square"/>
   </g>
   <g id="text_9">
    <text style="font: 700 8px 'DejaVu Sans', 'Bitstream Vera Sans', 'Computer Modern Sans Serif', 'Lucida Grande', 'Verdana', 'Geneva', 'Lucid', 'Arial', 'Helvetica', 'Avant Garde', sans-serif; text-anchor: start" x="7.2" y="13.27875" transform="rotate(-0 7.2 13.27875)">A</text>
   </g>
  </g>
  <g id="axes_2">
   <g id="patch_7">
    <path d="M 157.031765 88.441841 
L 226.081178 88.441841 
L 226.081178 20.111758 
L 157.031765 20.111758 
z
" style="fill: #ffffff"/>
   </g>
   <g id="matplotlib.axis_3">
    <g id="xtick_4">
     <g id="line2d_9">
      <g>
       <use xlink:href="#mb30b3debdc" x="160.170374" y="88.441841" style="stroke: #000000"/>
      </g>
     </g>
     <g id="text_10">
      <text style="font: 8px 'DejaVu Sans', 'Bitstream Vera Sans', 'Computer Modern Sans Serif', 'Lucida Grande', 'Verdana', 'Geneva', 'Lucid', 'Arial', 'Helvetica', 'Avant Garde', sans-serif; text-anchor: middle" x="160.170374" y="102.820591" transform="rotate(-0 160.170374 102.820591)">0</text>
     </g>
    </g>
    <g id="xtick_5">
     <g id="line2d_10">
      <g>
       <use xlink:href="#mb30b3debdc" x="210.38813" y="88.441841" style="stroke: #000000"/>
      </g>
     </g>
     <g id="text_11">
      <text style="font: 8px 'DejaVu Sans', 'Bitstream Vera Sans', 'Computer Modern Sans Serif', 'Lucida Grande', 'Verdana', 'Geneva', 'Lucid', 'Arial', 'Helvetica', 'Avant Garde', sans-serif; text-anchor: middle" x="210.38813" y="102.820591" transform="rotate(-0 210.38813 102.820591)">20</text>
     </g>
    </g>
    <g id="text_12">
     <text style="font: 9px 'DejaVu Sans', 'Bitstream Vera Sans', 'Computer Modern Sans Serif', 'Lucida Grande', 'Verdana', 'Geneva', 'Lucid', 'Arial', 'Helvetica', 'Avant Garde', sans-serif" transform="translate(160.138737 115.322935)">Num. Quanta </text>
     <text style="font: 9px 'DejaVu Sans', 'Bitstream Vera Sans', 'Computer Modern Sans Serif', 'Lucida Grande', 'Verdana', 'Geneva', 'Lucid', 'Arial', 'Helvetica', 'Avant Garde', sans-serif" transform="translate(155.611315 125.400966)"> (Queried Stim.)</text>
    </g>
   </g>
   <g id="matplotlib.axis_4">
    <g id="ytick_6">
     <g id="line2d_11">
      <g>
       <use xlink:href="#maf94978d97" x="157.031765" y="72.827999" style="stroke: #000000"/>
      </g>
     </g>
     <g id="text_13">
      <text style="font: 8px 'DejaVu Sans', 'Bitstream Vera Sans', 'Computer Modern Sans Serif', 'Lucida Grande', 'Verdana', 'Geneva', 'Lucid', 'Arial', 'Helvetica', 'Avant Garde', sans-serif; text-anchor: end" x="148.731765" y="75.867374" transform="rotate(-0 148.731765 75.867374)">0.6</text>
     </g>
    </g>
    <g id="ytick_7">
     <g id="line2d_12">
      <g>
       <use xlink:href="#maf94978d97" x="157.031765" y="47.812141" style="stroke: #000000"/>
      </g>
     </g>
     <g id="text_14">
      <text style="font: 8px 'DejaVu Sans', 'Bitstream Vera Sans', 'Computer Modern Sans Serif', 'Lucida Grande', 'Verdana', 'Geneva', 'Lucid', 'Arial', 'Helvetica', 'Avant Garde', sans-serif; text-anchor: end" x="148.731765" y="50.851516" transform="rotate(-0 148.731765 50.851516)">0.8</text>
     </g>
    </g>
    <g id="ytick_8">
     <g id="line2d_13">
      <g>
       <use xlink:href="#maf94978d97" x="157.031765" y="22.796282" style="stroke: #000000"/>
      </g>
     </g>
     <g id="text_15">
      <text style="font: 8px 'DejaVu Sans', 'Bitstream Vera Sans', 'Computer Modern Sans Serif', 'Lucida Grande', 'Verdana', 'Geneva', 'Lucid', 'Arial', 'Helvetica', 'Avant Garde', sans-serif; text-anchor: end" x="148.731765" y="25.835657" transform="rotate(-0 148.731765 25.835657)">1.0</text>
     </g>
    </g>
    <g id="text_16">
     <text style="font: 9px 'DejaVu Sans', 'Bitstream Vera Sans', 'Computer Modern Sans Serif', 'Lucida Grande', 'Verdana', 'Geneva', 'Lucid', 'Arial', 'Helvetica', 'Avant Garde', sans-serif; text-anchor: middle" x="130.137546" y="54.2768" transform="rotate(-90 130.137546 54.2768)">Prob. Remember</text>
    </g>
   </g>
   <g id="line2d_14">
    <path d="M 160.170374 85.335928 
L 162.681262 73.999413 
L 165.19215 64.71786 
L 167.703038 57.118768 
L 170.213925 50.897156 
L 172.724813 45.803332 
L 175.235701 41.632862 
L 177.746589 38.218369 
L 180.257476 35.422819 
L 182.768364 33.134016 
L 185.279252 31.260103 
L 187.79014 29.725873 
L 190.301028 28.469751 
L 192.811915 27.441326 
L 195.322803 26.599322 
L 197.833691 25.909948 
L 200.344579 25.345536 
L 202.855466 24.883435 
L 205.366354 24.505098 
L 207.877242 24.195342 
L 210.38813 23.941736 
L 212.899017 23.7341 
L 215.409905 23.564103 
L 217.920793 23.424921 
L 220.431681 23.310968 
L 222.942568 23.217671 
" clip-path="url(#p5206e49ab6)" style="fill: none; stroke: #1f77b4; stroke-width: 1.2; stroke-linecap: square"/>
   </g>
   <g id="patch_8">
    <path d="M 157.031765 88.441841 
L 157.031765 20.111758 
" style="fill: none; stroke: #000000; stroke-linejoin: miter; stroke-linecap: square"/>
   </g>
   <g id="patch_9">
    <path d="M 226.081178 88.441841 
L 226.081178 20.111758 
" style="fill: none; stroke: #000000; stroke-linejoin: miter; stroke-linecap: square"/>
   </g>
   <g id="patch_10">
    <path d="M 157.031765 88.441841 
L 226.081178 88.441841 
" style="fill: none; stroke: #000000; stroke-linejoin: miter; stroke-linecap: square"/>
   </g>
   <g id="patch_11">
    <path d="M 157.031765 20.111758 
L 226.081178 20.111758 
" style="fill: none; stroke: #000000; stroke-linejoin: miter; stroke-linecap: square"/>
   </g>
   <g id="text_17">
    <text style="font: 700 8px 'DejaVu Sans', 'Bitstream Vera Sans', 'Computer Modern Sans Serif', 'Lucida Grande', 'Verdana', 'Geneva', 'Lucid', 'Arial', 'Helvetica', 'Avant Garde', sans-serif; text-anchor: start" x="122.507058" y="13.27875" transform="rotate(-0 122.507058 13.27875)">B</text>
   </g>
  </g>
  <g id="axes_3">
   <g id="patch_12">
    <path d="M 277.901055 88.441841 
L 346.950469 88.441841 
L 346.950469 20.111758 
L 277.901055 20.111758 
z
" style="fill: #ffffff"/>
   </g>
   <g id="matplotlib.axis_5">
    <g id="xtick_6">
     <g id="line2d_15">
      <g>
       <use xlink:href="#mb30b3debdc" x="279.7586" y="88.441841" style="stroke: #000000"/>
      </g>
     </g>
     <g id="text_18">
      <text style="font: 8px 'DejaVu Sans', 'Bitstream Vera Sans', 'Computer Modern Sans Serif', 'Lucida Grande', 'Verdana', 'Geneva', 'Lucid', 'Arial', 'Helvetica', 'Avant Garde', sans-serif; text-anchor: middle" x="279.7586" y="102.820591" transform="rotate(-0 279.7586 102.820591)">0</text>
     </g>
    </g>
    <g id="xtick_7">
     <g id="line2d_16">
      <g>
       <use xlink:href="#mb30b3debdc" x="343.811859" y="88.441841" style="stroke: #000000"/>
      </g>
     </g>
     <g id="text_19">
      <text style="font: 8px 'DejaVu Sans', 'Bitstream Vera Sans', 'Computer Modern Sans Serif', 'Lucida Grande', 'Verdana', 'Geneva', 'Lucid', 'Arial', 'Helvetica', 'Avant Garde', sans-serif; text-anchor: middle" x="343.811859" y="102.820591" transform="rotate(-0 343.811859 102.820591)">50</text>
     </g>
    </g>
    <g id="text_20">
     <text style="font: 9px 'DejaVu Sans', 'Bitstream Vera Sans', 'Computer Modern Sans Serif', 'Lucida Grande', 'Verdana', 'Geneva', 'Lucid', 'Arial', 'Helvetica', 'Avant Garde', sans-serif; text-anchor: middle" x="312.425762" y="115.322935" transform="rotate(-0 312.425762 115.322935)">Time Step</text>
    </g>
   </g>
   <g id="matplotlib.axis_6">
    <g id="ytick_9">
     <g id="line2d_17">
      <g>
       <use xlink:href="#maf94978d97" x="277.901055" y="82.747667" style="stroke: #000000"/>
      </g>
     </g>
     <g id="text_21">
      <text style="font: 8px 'DejaVu Sans', 'Bitstream Vera Sans', 'Computer Modern Sans Serif', 'Lucida Grande', 'Verdana', 'Geneva', 'Lucid', 'Arial', 'Helvetica', 'Avant Garde', sans-serif; text-anchor: end" x="269.601055" y="85.787042" transform="rotate(-0 269.601055 85.787042)">0</text>
     </g>
    </g>
    <g id="ytick_10">
     <g id="line2d_18">
      <g>
       <use xlink:href="#maf94978d97" x="277.901055" y="54.2768" style="stroke: #000000"/>
      </g>
     </g>
     <g id="text_22">
      <text style="font: 8px 'DejaVu Sans', 'Bitstream Vera Sans', 'Computer Modern Sans Serif', 'Lucida Grande', 'Verdana', 'Geneva', 'Lucid', 'Arial', 'Helvetica', 'Avant Garde', sans-serif; text-anchor: end" x="269.601055" y="57.316175" transform="rotate(-0 269.601055 57.316175)">5</text>
     </g>
    </g>
    <g id="ytick_11">
     <g id="line2d_19">
      <g>
       <use xlink:href="#maf94978d97" x="277.901055" y="25.805932" style="stroke: #000000"/>
      </g>
     </g>
     <g id="text_23">
      <text style="font: 8px 'DejaVu Sans', 'Bitstream Vera Sans', 'Computer Modern Sans Serif', 'Lucida Grande', 'Verdana', 'Geneva', 'Lucid', 'Arial', 'Helvetica', 'Avant Garde', sans-serif; text-anchor: end" x="269.601055" y="28.845307" transform="rotate(-0 269.601055 28.845307)">10</text>
     </g>
    </g>
    <g id="text_24">
     <text style="font: 9px 'DejaVu Sans', 'Bitstream Vera Sans', 'Computer Modern Sans Serif', 'Lucida Grande', 'Verdana', 'Geneva', 'Lucid', 'Arial', 'Helvetica', 'Avant Garde', sans-serif; text-anchor: middle" x="253.549336" y="54.2768" transform="rotate(-90 253.549336 54.2768)">Num. Quanta</text>
    </g>
   </g>
   <g id="line2d_20">
    <path d="M 281.039665 71.35932 
L 282.32073 71.35932 
L 283.601795 71.35932 
L 284.88286 71.35932 
L 286.163926 65.665147 
L 287.444991 65.665147 
L 288.726056 71.35932 
L 290.007121 77.053494 
L 291.288186 77.053494 
L 292.569251 77.053494 
L 293.850317 77.053494 
L 295.131382 77.053494 
L 296.412447 82.747667 
L 297.693512 82.747667 
L 298.974577 82.747667 
L 300.255643 82.747667 
L 301.536708 82.747667 
L 302.817773 82.747667 
L 304.098838 82.747667 
L 305.379903 82.747667 
L 306.660968 82.747667 
L 307.942034 82.747667 
L 309.223099 82.747667 
L 310.504164 82.747667 
L 311.785229 82.747667 
L 313.066294 82.747667 
L 314.34736 82.747667 
L 315.628425 82.747667 
L 316.90949 82.747667 
L 318.190555 82.747667 
L 319.47162 82.747667 
L 320.752686 82.747667 
L 322.033751 82.747667 
L 323.314816 82.747667 
L 324.595881 82.747667 
L 325.876946 82.747667 
L 327.158011 82.747667 
L 328.439077 82.747667 
L 329.720142 82.747667 
L 331.001207 82.747667 
L 332.282272 82.747667 
L 333.563337 82.747667 
L 334.844403 82.747667 
L 336.125468 82.747667 
L 337.406533 82.747667 
L 338.687598 82.747667 
L 339.968663 82.747667 
L 341.249728 82.747667 
L 342.530794 82.747667 
L 343.811859 82.747667 
" clip-path="url(#p68c3f33ffd)" style="fill: none; stroke: #1f77b4; stroke-width: 1.2; stroke-linecap: square"/>
   </g>
   <g id="line2d_21">
    <path d="M 281.039665 42.888452 
L 282.32073 42.888452 
L 283.601795 42.888452 
L 284.88286 42.888452 
L 286.163926 48.582626 
L 287.444991 48.582626 
L 288.726056 42.888452 
L 290.007121 37.194279 
L 291.288186 37.194279 
L 292.569251 42.888452 
L 293.850317 42.888452 
L 295.131382 42.888452 
L 296.412447 37.194279 
L 297.693512 37.194279 
L 298.974577 31.500105 
L 300.255643 31.500105 
L 301.536708 31.500105 
L 302.817773 31.500105 
L 304.098838 31.500105 
L 305.379903 31.500105 
L 306.660968 25.805932 
L 307.942034 25.805932 
L 309.223099 25.805932 
L 310.504164 25.805932 
L 311.785229 25.805932 
L 313.066294 25.805932 
L 314.34736 25.805932 
L 315.628425 25.805932 
L 316.90949 25.805932 
L 318.190555 25.805932 
L 319.47162 25.805932 
L 320.752686 25.805932 
L 322.033751 25.805932 
L 323.314816 25.805932 
L 324.595881 25.805932 
L 325.876946 25.805932 
L 327.158011 25.805932 
L 328.439077 25.805932 
L 329.720142 25.805932 
L 331.001207 25.805932 
L 332.282272 25.805932 
L 333.563337 25.805932 
L 334.844403 25.805932 
L 336.125468 25.805932 
L 337.406533 25.805932 
L 338.687598 25.805932 
L 339.968663 25.805932 
L 341.249728 25.805932 
L 342.530794 25.805932 
L 343.811859 25.805932 
" clip-path="url(#p68c3f33ffd)" style="fill: none; stroke: #ff7f0e; stroke-width: 1.2; stroke-linecap: square"/>
   </g>
   <g id="line2d_22">
    <path d="M 281.039665 77.053494 
L 282.32073 77.053494 
L 283.601795 77.053494 
L 284.88286 77.053494 
L 286.163926 77.053494 
L 287.444991 77.053494 
L 288.726056 77.053494 
L 290.007121 77.053494 
L 291.288186 77.053494 
L 292.569251 71.35932 
L 293.850317 71.35932 
L 295.131382 71.35932 
L 296.412447 71.35932 
L 297.693512 71.35932 
L 298.974577 77.053494 
L 300.255643 77.053494 
L 301.536708 77.053494 
L 302.817773 77.053494 
L 304.098838 77.053494 
L 305.379903 77.053494 
L 306.660968 82.747667 
L 307.942034 82.747667 
L 309.223099 82.747667 
L 310.504164 82.747667 
L 311.785229 82.747667 
L 313.066294 82.747667 
L 314.34736 82.747667 
L 315.628425 82.747667 
L 316.90949 82.747667 
L 318.190555 82.747667 
L 319.47162 82.747667 
L 320.752686 82.747667 
L 322.033751 82.747667 
L 323.314816 82.747667 
L 324.595881 82.747667 
L 325.876946 82.747667 
L 327.158011 82.747667 
L 328.439077 82.747667 
L 329.720142 82.747667 
L 331.001207 82.747667 
L 332.282272 82.747667 
L 333.563337 82.747667 
L 334.844403 82.747667 
L 336.125468 82.747667 
L 337.406533 82.747667 
L 338.687598 82.747667 
L 339.968663 82.747667 
L 341.249728 82.747667 
L 342.530794 82.747667 
L 343.811859 82.747667 
" clip-path="url(#p68c3f33ffd)" style="fill: none; stroke: #2ca02c; stroke-width: 1.2; stroke-linecap: square"/>
   </g>
   <g id="patch_13">
    <path d="M 277.901055 88.441841 
L 277.901055 20.111758 
" style="fill: none; stroke: #000000; stroke-linejoin: miter; stroke-linecap: square"/>
   </g>
   <g id="patch_14">
    <path d="M 346.950469 88.441841 
L 346.950469 20.111758 
" style="fill: none; stroke: #000000; stroke-linejoin: miter; stroke-linecap: square"/>
   </g>
   <g id="patch_15">
    <path d="M 277.901055 88.441841 
L 346.950469 88.441841 
" style="fill: none; stroke: #000000; stroke-linejoin: miter; stroke-linecap: square"/>
   </g>
   <g id="patch_16">
    <path d="M 277.901055 20.111758 
L 346.950469 20.111758 
" style="fill: none; stroke: #000000; stroke-linejoin: miter; stroke-linecap: square"/>
   </g>
   <g id="text_25">
    <text style="font: 700 8px 'DejaVu Sans', 'Bitstream Vera Sans', 'Computer Modern Sans Serif', 'Lucida Grande', 'Verdana', 'Geneva', 'Lucid', 'Arial', 'Helvetica', 'Avant Garde', sans-serif; text-anchor: start" x="243.376348" y="13.27875" transform="rotate(-0 243.376348 13.27875)">C</text>
   </g>
   <g id="text_26">
    <text style="font: 9px 'DejaVu Sans', 'Bitstream Vera Sans', 'Computer Modern Sans Serif', 'Lucida Grande', 'Verdana', 'Geneva', 'Lucid', 'Arial', 'Helvetica', 'Avant Garde', sans-serif; text-anchor: middle" x="312.425762" y="14.111758" transform="rotate(-0 312.425762 14.111758)">Random Actions</text>
   </g>
  </g>
  <g id="axes_4">
   <g id="patch_17">
    <path d="M 398.770346 88.441841 
L 467.819759 88.441841 
L 467.819759 20.111758 
L 398.770346 20.111758 
z
" style="fill: #ffffff"/>
   </g>
   <g id="matplotlib.axis_7">
    <g id="xtick_8">
     <g id="line2d_23">
      <g>
       <use xlink:href="#mb30b3debdc" x="400.62789" y="88.441841" style="stroke: #000000"/>
      </g>
     </g>
     <g id="text_27">
      <text style="font: 8px 'DejaVu Sans', 'Bitstream Vera Sans', 'Computer Modern Sans Serif', 'Lucida Grande', 'Verdana', 'Geneva', 'Lucid', 'Arial', 'Helvetica', 'Avant Garde', sans-serif; text-anchor: middle" x="400.62789" y="102.820591" transform="rotate(-0 400.62789 102.820591)">0</text>
     </g>
    </g>
    <g id="xtick_9">
     <g id="line2d_24">
      <g>
       <use xlink:href="#mb30b3debdc" x="464.681149" y="88.441841" style="stroke: #000000"/>
      </g>
     </g>
     <g id="text_28">
      <text style="font: 8px 'DejaVu Sans', 'Bitstream Vera Sans', 'Computer Modern Sans Serif', 'Lucida Grande', 'Verdana', 'Geneva', 'Lucid', 'Arial', 'Helvetica', 'Avant Garde', sans-serif; text-anchor: middle" x="464.681149" y="102.820591" transform="rotate(-0 464.681149 102.820591)">50</text>
     </g>
    </g>
    <g id="text_29">
     <text style="font: 9px 'DejaVu Sans', 'Bitstream Vera Sans', 'Computer Modern Sans Serif', 'Lucida Grande', 'Verdana', 'Geneva', 'Lucid', 'Arial', 'Helvetica', 'Avant Garde', sans-serif; text-anchor: middle" x="433.295052" y="115.322935" transform="rotate(-0 433.295052 115.322935)">Time Step</text>
    </g>
   </g>
   <g id="matplotlib.axis_8">
    <g id="ytick_12">
     <g id="line2d_25">
      <g>
       <use xlink:href="#maf94978d97" x="398.770346" y="82.230015" style="stroke: #000000"/>
      </g>
     </g>
     <g id="text_30">
      <text style="font: 8px 'DejaVu Sans', 'Bitstream Vera Sans', 'Computer Modern Sans Serif', 'Lucida Grande', 'Verdana', 'Geneva', 'Lucid', 'Arial', 'Helvetica', 'Avant Garde', sans-serif; text-anchor: end" x="390.470346" y="85.26939" transform="rotate(-0 390.470346 85.26939)">0.50</text>
     </g>
    </g>
    <g id="ytick_13">
     <g id="line2d_26">
      <g>
       <use xlink:href="#maf94978d97" x="398.770346" y="51.170887" style="stroke: #000000"/>
      </g>
     </g>
     <g id="text_31">
      <text style="font: 8px 'DejaVu Sans', 'Bitstream Vera Sans', 'Computer Modern Sans Serif', 'Lucida Grande', 'Verdana', 'Geneva', 'Lucid', 'Arial', 'Helvetica', 'Avant Garde', sans-serif; text-anchor: end" x="390.470346" y="54.210262" transform="rotate(-0 390.470346 54.210262)">0.75</text>
     </g>
    </g>
    <g id="ytick_14">
     <g id="line2d_27">
      <g>
       <use xlink:href="#maf94978d97" x="398.770346" y="20.111758" style="stroke: #000000"/>
      </g>
     </g>
     <g id="text_32">
      <text style="font: 8px 'DejaVu Sans', 'Bitstream Vera Sans', 'Computer Modern Sans Serif', 'Lucida Grande', 'Verdana', 'Geneva', 'Lucid', 'Arial', 'Helvetica', 'Avant Garde', sans-serif; text-anchor: end" x="390.470346" y="23.151133" transform="rotate(-0 390.470346 23.151133)">1.00</text>
     </g>
    </g>
    <g id="text_33">
     <text style="font: 9px 'DejaVu Sans', 'Bitstream Vera Sans', 'Computer Modern Sans Serif', 'Lucida Grande', 'Verdana', 'Geneva', 'Lucid', 'Arial', 'Helvetica', 'Avant Garde', sans-serif; text-anchor: middle" x="366.786127" y="54.2768" transform="rotate(-90 366.786127 54.2768)">Prob. Remember</text>
    </g>
   </g>
   <g id="line2d_28">
    <path d="M 401.908955 61.750871 
L 403.19002 61.750871 
L 404.471086 61.750871 
L 405.752151 61.750871 
L 407.033216 54.20298 
L 408.314281 54.20298 
L 409.595346 61.750871 
L 410.876412 70.969885 
L 412.157477 70.969885 
L 413.438542 70.969885 
L 414.719607 70.969885 
L 416.000672 70.969885 
L 417.281737 82.230015 
L 418.562803 82.230015 
L 419.843868 82.230015 
L 421.124933 82.230015 
L 422.405998 82.230015 
L 423.687063 82.230015 
L 424.968129 82.230015 
L 426.249194 82.230015 
L 427.530259 82.230015 
L 428.811324 82.230015 
L 430.092389 82.230015 
L 431.373454 82.230015 
L 432.65452 82.230015 
L 433.935585 82.230015 
L 435.21665 82.230015 
L 436.497715 82.230015 
L 437.77878 82.230015 
L 439.059846 82.230015 
L 440.340911 82.230015 
L 441.621976 82.230015 
L 442.903041 82.230015 
L 444.184106 82.230015 
L 445.465171 82.230015 
L 446.746237 82.230015 
L 448.027302 82.230015 
L 449.308367 82.230015 
L 450.589432 82.230015 
L 451.870497 82.230015 
L 453.151563 82.230015 
L 454.432628 82.230015 
L 455.713693 82.230015 
L 456.994758 82.230015 
L 458.275823 82.230015 
L 459.556889 82.230015 
L 460.837954 82.230015 
L 462.119019 82.230015 
L 463.400084 82.230015 
L 464.681149 82.230015 
" clip-path="url(#pd6fff3423e)" style="fill: none; stroke: #1f77b4; stroke-width: 1.2; stroke-linecap: square"/>
   </g>
   <g id="line2d_29">
    <path d="M 401.908955 35.429932 
L 403.19002 35.429932 
L 404.471086 35.429932 
L 405.752151 35.429932 
L 407.033216 38.821418 
L 408.314281 38.821418 
L 409.595346 35.429932 
L 410.876412 32.653218 
L 412.157477 32.653218 
L 413.438542 35.429932 
L 414.719607 35.429932 
L 416.000672 35.429932 
L 417.281737 32.653218 
L 418.562803 32.653218 
L 419.843868 30.379837 
L 421.124933 30.379837 
L 422.405998 30.379837 
L 423.687063 30.379837 
L 424.968129 30.379837 
L 426.249194 30.379837 
L 427.530259 28.51855 
L 428.811324 28.51855 
L 430.092389 28.51855 
L 431.373454 28.51855 
L 432.65452 28.51855 
L 433.935585 28.51855 
L 435.21665 28.51855 
L 436.497715 28.51855 
L 437.77878 28.51855 
L 439.059846 28.51855 
L 440.340911 28.51855 
L 441.621976 28.51855 
L 442.903041 28.51855 
L 444.184106 28.51855 
L 445.465171 28.51855 
L 446.746237 28.51855 
L 448.027302 28.51855 
L 449.308367 28.51855 
L 450.589432 28.51855 
L 451.870497 28.51855 
L 453.151563 28.51855 
L 454.432628 28.51855 
L 455.713693 28.51855 
L 456.994758 28.51855 
L 458.275823 28.51855 
L 459.556889 28.51855 
L 460.837954 28.51855 
L 462.119019 28.51855 
L 463.400084 28.51855 
L 464.681149 28.51855 
" clip-path="url(#pd6fff3423e)" style="fill: none; stroke: #ff7f0e; stroke-width: 1.2; stroke-linecap: square"/>
   </g>
   <g id="line2d_30">
    <path d="M 401.908955 70.969885 
L 403.19002 70.969885 
L 404.471086 70.969885 
L 405.752151 70.969885 
L 407.033216 70.969885 
L 408.314281 70.969885 
L 409.595346 70.969885 
L 410.876412 70.969885 
L 412.157477 70.969885 
L 413.438542 61.750871 
L 414.719607 61.750871 
L 416.000672 61.750871 
L 417.281737 61.750871 
L 418.562803 61.750871 
L 419.843868 70.969885 
L 421.124933 70.969885 
L 422.405998 70.969885 
L 423.687063 70.969885 
L 424.968129 70.969885 
L 426.249194 70.969885 
L 427.530259 82.230015 
L 428.811324 82.230015 
L 430.092389 82.230015 
L 431.373454 82.230015 
L 432.65452 82.230015 
L 433.935585 82.230015 
L 435.21665 82.230015 
L 436.497715 82.230015 
L 437.77878 82.230015 
L 439.059846 82.230015 
L 440.340911 82.230015 
L 441.621976 82.230015 
L 442.903041 82.230015 
L 444.184106 82.230015 
L 445.465171 82.230015 
L 446.746237 82.230015 
L 448.027302 82.230015 
L 449.308367 82.230015 
L 450.589432 82.230015 
L 451.870497 82.230015 
L 453.151563 82.230015 
L 454.432628 82.230015 
L 455.713693 82.230015 
L 456.994758 82.230015 
L 458.275823 82.230015 
L 459.556889 82.230015 
L 460.837954 82.230015 
L 462.119019 82.230015 
L 463.400084 82.230015 
L 464.681149 82.230015 
" clip-path="url(#pd6fff3423e)" style="fill: none; stroke: #2ca02c; stroke-width: 1.2; stroke-linecap: square"/>
   </g>
   <g id="patch_18">
    <path d="M 398.770346 88.441841 
L 398.770346 20.111758 
" style="fill: none; stroke: #000000; stroke-linejoin: miter; stroke-linecap: square"/>
   </g>
   <g id="patch_19">
    <path d="M 467.819759 88.441841 
L 467.819759 20.111758 
" style="fill: none; stroke: #000000; stroke-linejoin: miter; stroke-linecap: square"/>
   </g>
   <g id="patch_20">
    <path d="M 398.770346 88.441841 
L 467.819759 88.441841 
" style="fill: none; stroke: #000000; stroke-linejoin: miter; stroke-linecap: square"/>
   </g>
   <g id="patch_21">
    <path d="M 398.770346 20.111758 
L 467.819759 20.111758 
" style="fill: none; stroke: #000000; stroke-linejoin: miter; stroke-linecap: square"/>
   </g>
   <g id="text_34">
    <text style="font: 700 8px 'DejaVu Sans', 'Bitstream Vera Sans', 'Computer Modern Sans Serif', 'Lucida Grande', 'Verdana', 'Geneva', 'Lucid', 'Arial', 'Helvetica', 'Avant Garde', sans-serif; text-anchor: start" x="364.245639" y="13.27875" transform="rotate(-0 364.245639 13.27875)">D</text>
   </g>
  </g>
  <g id="axes_5">
   <g id="patch_22">
    <path d="M 41.724707 224.519872 
L 110.77412 224.519872 
L 110.77412 156.18979 
L 41.724707 156.18979 
z
" style="fill: #ffffff"/>
   </g>
   <g id="matplotlib.axis_9">
    <g id="xtick_10">
     <g id="line2d_31">
      <g>
       <use xlink:href="#mb30b3debdc" x="43.582251" y="224.519872" style="stroke: #000000"/>
      </g>
     </g>
     <g id="text_35">
      <text style="font: 8px 'DejaVu Sans', 'Bitstream Vera Sans', 'Computer Modern Sans Serif', 'Lucida Grande', 'Verdana', 'Geneva', 'Lucid', 'Arial', 'Helvetica', 'Avant Garde', sans-serif; text-anchor: middle" x="43.582251" y="238.898622" transform="rotate(-0 43.582251 238.898622)">0</text>
     </g>
    </g>
    <g id="xtick_11">
     <g id="line2d_32">
      <g>
       <use xlink:href="#mb30b3debdc" x="107.63551" y="224.519872" style="stroke: #000000"/>
      </g>
     </g>
     <g id="text_36">
      <text style="font: 8px 'DejaVu Sans', 'Bitstream Vera Sans', 'Computer Modern Sans Serif', 'Lucida Grande', 'Verdana', 'Geneva', 'Lucid', 'Arial', 'Helvetica', 'Avant Garde', sans-serif; text-anchor: middle" x="107.63551" y="238.898622" transform="rotate(-0 107.63551 238.898622)">50</text>
     </g>
    </g>
    <g id="text_37">
     <text style="font: 9px 'DejaVu Sans', 'Bitstream Vera Sans', 'Computer Modern Sans Serif', 'Lucida Grande', 'Verdana', 'Geneva', 'Lucid', 'Arial', 'Helvetica', 'Avant Garde', sans-serif; text-anchor: middle" x="76.249413" y="251.400966" transform="rotate(-0 76.249413 251.400966)">Time Step</text>
    </g>
   </g>
   <g id="matplotlib.axis_10">
    <g id="ytick_15">
     <g id="line2d_33">
      <g>
       <use xlink:href="#maf94978d97" x="41.724707" y="218.825698" style="stroke: #000000"/>
      </g>
     </g>
     <g id="text_38">
      <text style="font: 8px 'DejaVu Sans', 'Bitstream Vera Sans', 'Computer Modern Sans Serif', 'Lucida Grande', 'Verdana', 'Geneva', 'Lucid', 'Arial', 'Helvetica', 'Avant Garde', sans-serif; text-anchor: end" x="33.424707" y="221.865073" transform="rotate(-0 33.424707 221.865073)">0</text>
     </g>
    </g>
    <g id="ytick_16">
     <g id="line2d_34">
      <g>
       <use xlink:href="#maf94978d97" x="41.724707" y="190.354831" style="stroke: #000000"/>
      </g>
     </g>
     <g id="text_39">
      <text style="font: 8px 'DejaVu Sans', 'Bitstream Vera Sans', 'Computer Modern Sans Serif', 'Lucida Grande', 'Verdana', 'Geneva', 'Lucid', 'Arial', 'Helvetica', 'Avant Garde', sans-serif; text-anchor: end" x="33.424707" y="193.394206" transform="rotate(-0 33.424707 193.394206)">5</text>
     </g>
    </g>
    <g id="ytick_17">
     <g id="line2d_35">
      <g>
       <use xlink:href="#maf94978d97" x="41.724707" y="161.883963" style="stroke: #000000"/>
      </g>
     </g>
     <g id="text_40">
      <text style="font: 8px 'DejaVu Sans', 'Bitstream Vera Sans', 'Computer Modern Sans Serif', 'Lucida Grande', 'Verdana', 'Geneva', 'Lucid', 'Arial', 'Helvetica', 'Avant Garde', sans-serif; text-anchor: end" x="33.424707" y="164.923338" transform="rotate(-0 33.424707 164.923338)">10</text>
     </g>
    </g>
    <g id="text_41">
     <text style="font: 9px 'DejaVu Sans', 'Bitstream Vera Sans', 'Computer Modern Sans Serif', 'Lucida Grande', 'Verdana', 'Geneva', 'Lucid', 'Arial', 'Helvetica', 'Avant Garde', sans-serif; text-anchor: middle" x="17.372988" y="190.354831" transform="rotate(-90 17.372988 190.354831)">Num. Quanta</text>
    </g>
   </g>
   <g id="line2d_36">
    <path d="M 44.863316 213.131525 
L 46.144382 207.437351 
L 47.425447 213.131525 
L 48.706512 207.437351 
L 49.987577 201.743178 
L 51.268642 201.743178 
L 52.549708 201.743178 
L 53.830773 201.743178 
L 55.111838 201.743178 
L 56.392903 207.437351 
L 57.673968 201.743178 
L 58.955033 201.743178 
L 60.236099 196.049004 
L 61.517164 196.049004 
L 62.798229 201.743178 
L 64.079294 207.437351 
L 65.360359 201.743178 
L 66.641425 201.743178 
L 67.92249 207.437351 
L 69.203555 201.743178 
L 70.48462 196.049004 
L 71.765685 201.743178 
L 73.04675 201.743178 
L 74.327816 201.743178 
L 75.608881 196.049004 
L 76.889946 196.049004 
L 78.171011 201.743178 
L 79.452076 201.743178 
L 80.733142 201.743178 
L 82.014207 201.743178 
L 83.295272 207.437351 
L 84.576337 201.743178 
L 85.857402 196.049004 
L 87.138467 196.049004 
L 88.419533 196.049004 
L 89.700598 201.743178 
L 90.981663 201.743178 
L 92.262728 196.049004 
L 93.543793 196.049004 
L 94.824859 196.049004 
L 96.105924 196.049004 
L 97.386989 196.049004 
L 98.668054 201.743178 
L 99.949119 201.743178 
L 101.230185 201.743178 
L 102.51125 196.049004 
L 103.792315 196.049004 
L 105.07338 196.049004 
L 106.354445 196.049004 
L 107.63551 196.049004 
" clip-path="url(#p291525005f)" style="fill: none; stroke: #1f77b4; stroke-width: 1.2; stroke-linecap: square"/>
   </g>
   <g id="line2d_37">
    <path d="M 44.863316 207.437351 
L 46.144382 207.437351 
L 47.425447 201.743178 
L 48.706512 207.437351 
L 49.987577 213.131525 
L 51.268642 207.437351 
L 52.549708 201.743178 
L 53.830773 201.743178 
L 55.111838 196.049004 
L 56.392903 196.049004 
L 57.673968 196.049004 
L 58.955033 201.743178 
L 60.236099 201.743178 
L 61.517164 201.743178 
L 62.798229 196.049004 
L 64.079294 196.049004 
L 65.360359 196.049004 
L 66.641425 196.049004 
L 67.92249 196.049004 
L 69.203555 196.049004 
L 70.48462 196.049004 
L 71.765685 196.049004 
L 73.04675 196.049004 
L 74.327816 196.049004 
L 75.608881 201.743178 
L 76.889946 207.437351 
L 78.171011 201.743178 
L 79.452076 196.049004 
L 80.733142 201.743178 
L 82.014207 196.049004 
L 83.295272 196.049004 
L 84.576337 201.743178 
L 85.857402 207.437351 
L 87.138467 201.743178 
L 88.419533 207.437351 
L 89.700598 201.743178 
L 90.981663 201.743178 
L 92.262728 201.743178 
L 93.543793 207.437351 
L 94.824859 201.743178 
L 96.105924 207.437351 
L 97.386989 207.437351 
L 98.668054 201.743178 
L 99.949119 201.743178 
L 101.230185 196.049004 
L 102.51125 201.743178 
L 103.792315 201.743178 
L 105.07338 207.437351 
L 106.354445 201.743178 
L 107.63551 201.743178 
" clip-path="url(#p291525005f)" style="fill: none; stroke: #ff7f0e; stroke-width: 1.2; stroke-linecap: square"/>
   </g>
   <g id="line2d_38">
    <path d="M 44.863316 178.966484 
L 46.144382 184.660657 
L 47.425447 184.660657 
L 48.706512 184.660657 
L 49.987577 184.660657 
L 51.268642 190.354831 
L 52.549708 196.049004 
L 53.830773 196.049004 
L 55.111838 201.743178 
L 56.392903 196.049004 
L 57.673968 201.743178 
L 58.955033 196.049004 
L 60.236099 201.743178 
L 61.517164 201.743178 
L 62.798229 201.743178 
L 64.079294 196.049004 
L 65.360359 201.743178 
L 66.641425 201.743178 
L 67.92249 196.049004 
L 69.203555 201.743178 
L 70.48462 207.437351 
L 71.765685 201.743178 
L 73.04675 201.743178 
L 74.327816 201.743178 
L 75.608881 201.743178 
L 76.889946 196.049004 
L 78.171011 196.049004 
L 79.452076 201.743178 
L 80.733142 196.049004 
L 82.014207 201.743178 
L 83.295272 196.049004 
L 84.576337 196.049004 
L 85.857402 196.049004 
L 87.138467 201.743178 
L 88.419533 196.049004 
L 89.700598 196.049004 
L 90.981663 196.049004 
L 92.262728 201.743178 
L 93.543793 196.049004 
L 94.824859 201.743178 
L 96.105924 196.049004 
L 97.386989 196.049004 
L 98.668054 196.049004 
L 99.949119 196.049004 
L 101.230185 201.743178 
L 102.51125 201.743178 
L 103.792315 201.743178 
L 105.07338 196.049004 
L 106.354445 201.743178 
L 107.63551 201.743178 
" clip-path="url(#p291525005f)" style="fill: none; stroke: #2ca02c; stroke-width: 1.2; stroke-linecap: square"/>
   </g>
   <g id="patch_23">
    <path d="M 41.724707 224.519872 
L 41.724707 156.18979 
" style="fill: none; stroke: #000000; stroke-linejoin: miter; stroke-linecap: square"/>
   </g>
   <g id="patch_24">
    <path d="M 110.77412 224.519872 
L 110.77412 156.18979 
" style="fill: none; stroke: #000000; stroke-linejoin: miter; stroke-linecap: square"/>
   </g>
   <g id="patch_25">
    <path d="M 41.724707 224.519872 
L 110.77412 224.519872 
" style="fill: none; stroke: #000000; stroke-linejoin: miter; stroke-linecap: square"/>
   </g>
   <g id="patch_26">
    <path d="M 41.724707 156.18979 
L 110.77412 156.18979 
" style="fill: none; stroke: #000000; stroke-linejoin: miter; stroke-linecap: square"/>
   </g>
   <g id="text_42">
    <text style="font: 700 8px 'DejaVu Sans', 'Bitstream Vera Sans', 'Computer Modern Sans Serif', 'Lucida Grande', 'Verdana', 'Geneva', 'Lucid', 'Arial', 'Helvetica', 'Avant Garde', sans-serif; text-anchor: start" x="7.2" y="149.356781" transform="rotate(-0 7.2 149.356781)">E</text>
   </g>
   <g id="text_43">
    <text style="font: 9px 'DejaVu Sans', 'Bitstream Vera Sans', 'Computer Modern Sans Serif', 'Lucida Grande', 'Verdana', 'Geneva', 'Lucid', 'Arial', 'Helvetica', 'Avant Garde', sans-serif" transform="translate(39.146913 140.111758)">Optimal Actions </text>
    <text style="font: 9px 'DejaVu Sans', 'Bitstream Vera Sans', 'Computer Modern Sans Serif', 'Lucida Grande', 'Verdana', 'Geneva', 'Lucid', 'Arial', 'Helvetica', 'Avant Garde', sans-serif" transform="translate(35.212929 150.18979)"> Equal Probe Prob.</text>
   </g>
  </g>
  <g id="axes_6">
   <g id="patch_27">
    <path d="M 157.031765 224.519872 
L 226.081178 224.519872 
L 226.081178 156.18979 
L 157.031765 156.18979 
z
" style="fill: #ffffff"/>
   </g>
   <g id="matplotlib.axis_11">
    <g id="xtick_12">
     <g id="line2d_39">
      <g>
       <use xlink:href="#mb30b3debdc" x="158.889309" y="224.519872" style="stroke: #000000"/>
      </g>
     </g>
     <g id="text_44">
      <text style="font: 8px 'DejaVu Sans', 'Bitstream Vera Sans', 'Computer Modern Sans Serif', 'Lucida Grande', 'Verdana', 'Geneva', 'Lucid', 'Arial', 'Helvetica', 'Avant Garde', sans-serif; text-anchor: middle" x="158.889309" y="238.898622" transform="rotate(-0 158.889309 238.898622)">0</text>
     </g>
    </g>
    <g id="xtick_13">
     <g id="line2d_40">
      <g>
       <use xlink:href="#mb30b3debdc" x="222.942568" y="224.519872" style="stroke: #000000"/>
      </g>
     </g>
     <g id="text_45">
      <text style="font: 8px 'DejaVu Sans', 'Bitstream Vera Sans', 'Computer Modern Sans Serif', 'Lucida Grande', 'Verdana', 'Geneva', 'Lucid', 'Arial', 'Helvetica', 'Avant Garde', sans-serif; text-anchor: middle" x="222.942568" y="238.898622" transform="rotate(-0 222.942568 238.898622)">50</text>
     </g>
    </g>
    <g id="text_46">
     <text style="font: 9px 'DejaVu Sans', 'Bitstream Vera Sans', 'Computer Modern Sans Serif', 'Lucida Grande', 'Verdana', 'Geneva', 'Lucid', 'Arial', 'Helvetica', 'Avant Garde', sans-serif; text-anchor: middle" x="191.556471" y="251.400966" transform="rotate(-0 191.556471 251.400966)">Time Step</text>
    </g>
   </g>
   <g id="matplotlib.axis_12">
    <g id="ytick_18">
     <g id="line2d_41">
      <g>
       <use xlink:href="#maf94978d97" x="157.031765" y="218.825698" style="stroke: #000000"/>
      </g>
     </g>
     <g id="text_47">
      <text style="font: 8px 'DejaVu Sans', 'Bitstream Vera Sans', 'Computer Modern Sans Serif', 'Lucida Grande', 'Verdana', 'Geneva', 'Lucid', 'Arial', 'Helvetica', 'Avant Garde', sans-serif; text-anchor: end" x="148.731765" y="221.865073" transform="rotate(-0 148.731765 221.865073)">0</text>
     </g>
    </g>
    <g id="ytick_19">
     <g id="line2d_42">
      <g>
       <use xlink:href="#maf94978d97" x="157.031765" y="190.354831" style="stroke: #000000"/>
      </g>
     </g>
     <g id="text_48">
      <text style="font: 8px 'DejaVu Sans', 'Bitstream Vera Sans', 'Computer Modern Sans Serif', 'Lucida Grande', 'Verdana', 'Geneva', 'Lucid', 'Arial', 'Helvetica', 'Avant Garde', sans-serif; text-anchor: end" x="148.731765" y="193.394206" transform="rotate(-0 148.731765 193.394206)">5</text>
     </g>
    </g>
    <g id="ytick_20">
     <g id="line2d_43">
      <g>
       <use xlink:href="#maf94978d97" x="157.031765" y="161.883963" style="stroke: #000000"/>
      </g>
     </g>
     <g id="text_49">
      <text style="font: 8px 'DejaVu Sans', 'Bitstream Vera Sans', 'Computer Modern Sans Serif', 'Lucida Grande', 'Verdana', 'Geneva', 'Lucid', 'Arial', 'Helvetica', 'Avant Garde', sans-serif; text-anchor: end" x="148.731765" y="164.923338" transform="rotate(-0 148.731765 164.923338)">10</text>
     </g>
    </g>
    <g id="text_50">
     <text style="font: 9px 'DejaVu Sans', 'Bitstream Vera Sans', 'Computer Modern Sans Serif', 'Lucida Grande', 'Verdana', 'Geneva', 'Lucid', 'Arial', 'Helvetica', 'Avant Garde', sans-serif; text-anchor: middle" x="132.680046" y="190.354831" transform="rotate(-90 132.680046 190.354831)">Num. Quanta</text>
    </g>
   </g>
   <g id="line2d_44">
    <path d="M 160.170374 184.660657 
L 161.45144 178.966484 
L 162.732505 173.27231 
L 164.01357 173.27231 
L 165.294635 173.27231 
L 166.5757 173.27231 
L 167.856766 173.27231 
L 169.137831 167.578137 
L 170.418896 167.578137 
L 171.699961 167.578137 
L 172.981026 161.883963 
L 174.262091 161.883963 
L 175.543157 161.883963 
L 176.824222 161.883963 
L 178.105287 161.883963 
L 179.386352 161.883963 
L 180.667417 161.883963 
L 181.948483 161.883963 
L 183.229548 161.883963 
L 184.510613 161.883963 
L 185.791678 161.883963 
L 187.072743 161.883963 
L 188.353808 161.883963 
L 189.634874 161.883963 
L 190.915939 161.883963 
L 192.197004 161.883963 
L 193.478069 161.883963 
L 194.759134 161.883963 
L 196.0402 161.883963 
L 197.321265 161.883963 
L 198.60233 161.883963 
L 199.883395 161.883963 
L 201.16446 161.883963 
L 202.445525 161.883963 
L 203.726591 161.883963 
L 205.007656 161.883963 
L 206.288721 161.883963 
L 207.569786 161.883963 
L 208.850851 161.883963 
L 210.131917 161.883963 
L 211.412982 161.883963 
L 212.694047 161.883963 
L 213.975112 161.883963 
L 215.256177 161.883963 
L 216.537243 161.883963 
L 217.818308 161.883963 
L 219.099373 161.883963 
L 220.380438 161.883963 
L 221.661503 161.883963 
L 222.942568 161.883963 
" clip-path="url(#pc177d75cd0)" style="fill: none; stroke: #1f77b4; stroke-width: 1.2; stroke-linecap: square"/>
   </g>
   <g id="line2d_45">
    <path d="M 160.170374 201.743178 
L 161.45144 207.437351 
L 162.732505 213.131525 
L 164.01357 213.131525 
L 165.294635 213.131525 
L 166.5757 213.131525 
L 167.856766 213.131525 
L 169.137831 213.131525 
L 170.418896 213.131525 
L 171.699961 213.131525 
L 172.981026 218.825698 
L 174.262091 218.825698 
L 175.543157 218.825698 
L 176.824222 218.825698 
L 178.105287 218.825698 
L 179.386352 218.825698 
L 180.667417 218.825698 
L 181.948483 218.825698 
L 183.229548 218.825698 
L 184.510613 218.825698 
L 185.791678 218.825698 
L 187.072743 218.825698 
L 188.353808 218.825698 
L 189.634874 218.825698 
L 190.915939 218.825698 
L 192.197004 218.825698 
L 193.478069 218.825698 
L 194.759134 218.825698 
L 196.0402 218.825698 
L 197.321265 218.825698 
L 198.60233 218.825698 
L 199.883395 218.825698 
L 201.16446 218.825698 
L 202.445525 218.825698 
L 203.726591 218.825698 
L 205.007656 218.825698 
L 206.288721 218.825698 
L 207.569786 218.825698 
L 208.850851 218.825698 
L 210.131917 218.825698 
L 211.412982 218.825698 
L 212.694047 218.825698 
L 213.975112 218.825698 
L 215.256177 218.825698 
L 216.537243 218.825698 
L 217.818308 218.825698 
L 219.099373 218.825698 
L 220.380438 218.825698 
L 221.661503 218.825698 
L 222.942568 218.825698 
" clip-path="url(#pc177d75cd0)" style="fill: none; stroke: #ff7f0e; stroke-width: 1.2; stroke-linecap: square"/>
   </g>
   <g id="line2d_46">
    <path d="M 160.170374 213.131525 
L 161.45144 213.131525 
L 162.732505 213.131525 
L 164.01357 213.131525 
L 165.294635 213.131525 
L 166.5757 213.131525 
L 167.856766 213.131525 
L 169.137831 218.825698 
L 170.418896 218.825698 
L 171.699961 218.825698 
L 172.981026 218.825698 
L 174.262091 218.825698 
L 175.543157 218.825698 
L 176.824222 218.825698 
L 178.105287 218.825698 
L 179.386352 218.825698 
L 180.667417 218.825698 
L 181.948483 218.825698 
L 183.229548 218.825698 
L 184.510613 218.825698 
L 185.791678 218.825698 
L 187.072743 218.825698 
L 188.353808 218.825698 
L 189.634874 218.825698 
L 190.915939 218.825698 
L 192.197004 218.825698 
L 193.478069 218.825698 
L 194.759134 218.825698 
L 196.0402 218.825698 
L 197.321265 218.825698 
L 198.60233 218.825698 
L 199.883395 218.825698 
L 201.16446 218.825698 
L 202.445525 218.825698 
L 203.726591 218.825698 
L 205.007656 218.825698 
L 206.288721 218.825698 
L 207.569786 218.825698 
L 208.850851 218.825698 
L 210.131917 218.825698 
L 211.412982 218.825698 
L 212.694047 218.825698 
L 213.975112 218.825698 
L 215.256177 218.825698 
L 216.537243 218.825698 
L 217.818308 218.825698 
L 219.099373 218.825698 
L 220.380438 218.825698 
L 221.661503 218.825698 
L 222.942568 218.825698 
" clip-path="url(#pc177d75cd0)" style="fill: none; stroke: #2ca02c; stroke-width: 1.2; stroke-linecap: square"/>
   </g>
   <g id="patch_28">
    <path d="M 157.031765 224.519872 
L 157.031765 156.18979 
" style="fill: none; stroke: #000000; stroke-linejoin: miter; stroke-linecap: square"/>
   </g>
   <g id="patch_29">
    <path d="M 226.081178 224.519872 
L 226.081178 156.18979 
" style="fill: none; stroke: #000000; stroke-linejoin: miter; stroke-linecap: square"/>
   </g>
   <g id="patch_30">
    <path d="M 157.031765 224.519872 
L 226.081178 224.519872 
" style="fill: none; stroke: #000000; stroke-linejoin: miter; stroke-linecap: square"/>
   </g>
   <g id="patch_31">
    <path d="M 157.031765 156.18979 
L 226.081178 156.18979 
" style="fill: none; stroke: #000000; stroke-linejoin: miter; stroke-linecap: square"/>
   </g>
   <g id="text_51">
    <text style="fill: #1f77b4; font: 5.5px 'DejaVu Sans', 'Bitstream Vera Sans', 'Computer Modern Sans Serif', 'Lucida Grande', 'Verdana', 'Geneva', 'Lucid', 'Arial', 'Helvetica', 'Avant Garde', sans-serif; text-anchor: start" x="184.510613" y="173.27231" transform="rotate(-0 184.510613 173.27231)">Stim. 1</text>
   </g>
   <g id="text_52">
    <text style="font: 700 8px 'DejaVu Sans', 'Bitstream Vera Sans', 'Computer Modern Sans Serif', 'Lucida Grande', 'Verdana', 'Geneva', 'Lucid', 'Arial', 'Helvetica', 'Avant Garde', sans-serif; text-anchor: start" x="122.507058" y="149.356781" transform="rotate(-0 122.507058 149.356781)">F</text>
   </g>
   <g id="text_53">
    <text style="font: 9px 'DejaVu Sans', 'Bitstream Vera Sans', 'Computer Modern Sans Serif', 'Lucida Grande', 'Verdana', 'Geneva', 'Lucid', 'Arial', 'Helvetica', 'Avant Garde', sans-serif" transform="translate(154.453971 140.111758)">Optimal Actions </text>
    <text style="font: 9px 'DejaVu Sans', 'Bitstream Vera Sans', 'Computer Modern Sans Serif', 'Lucida Grande', 'Verdana', 'Geneva', 'Lucid', 'Arial', 'Helvetica', 'Avant Garde', sans-serif" transform="translate(147.251862 150.18979)"> Stim. 1 More Likely</text>
   </g>
  </g>
  <g id="axes_7">
   <g id="patch_32">
    <path d="M 277.901055 224.519872 
L 346.950469 224.519872 
L 346.950469 156.18979 
L 277.901055 156.18979 
z
" style="fill: #ffffff"/>
   </g>
   <g id="matplotlib.axis_13">
    <g id="xtick_14">
     <g id="line2d_47">
      <g>
       <use xlink:href="#mb30b3debdc" x="280.829724" y="224.519872" style="stroke: #000000"/>
      </g>
     </g>
     <g id="text_54">
      <text style="font: 8px 'DejaVu Sans', 'Bitstream Vera Sans', 'Computer Modern Sans Serif', 'Lucida Grande', 'Verdana', 'Geneva', 'Lucid', 'Arial', 'Helvetica', 'Avant Garde', sans-serif; text-anchor: middle" x="280.829724" y="238.898622" transform="rotate(-0 280.829724 238.898622)">0</text>
     </g>
    </g>
    <g id="xtick_15">
     <g id="line2d_48">
      <g>
       <use xlink:href="#mb30b3debdc" x="322.817814" y="224.519872" style="stroke: #000000"/>
      </g>
     </g>
     <g id="text_55">
      <text style="font: 8px 'DejaVu Sans', 'Bitstream Vera Sans', 'Computer Modern Sans Serif', 'Lucida Grande', 'Verdana', 'Geneva', 'Lucid', 'Arial', 'Helvetica', 'Avant Garde', sans-serif; text-anchor: middle" x="322.817814" y="238.898622" transform="rotate(-0 322.817814 238.898622)">200</text>
     </g>
    </g>
    <g id="text_56">
     <text style="font: 9px 'DejaVu Sans', 'Bitstream Vera Sans', 'Computer Modern Sans Serif', 'Lucida Grande', 'Verdana', 'Geneva', 'Lucid', 'Arial', 'Helvetica', 'Avant Garde', sans-serif; text-anchor: middle" x="312.425762" y="251.400966" transform="rotate(-0 312.425762 251.400966)">Time Step</text>
    </g>
   </g>
   <g id="matplotlib.axis_14">
    <g id="ytick_21">
     <g id="line2d_49">
      <g>
       <use xlink:href="#maf94978d97" x="277.901055" y="210.853855" style="stroke: #000000"/>
      </g>
     </g>
     <g id="text_57">
      <text style="font: 8px 'DejaVu Sans', 'Bitstream Vera Sans', 'Computer Modern Sans Serif', 'Lucida Grande', 'Verdana', 'Geneva', 'Lucid', 'Arial', 'Helvetica', 'Avant Garde', sans-serif; text-anchor: end" x="269.601055" y="213.893231" transform="rotate(-0 269.601055 213.893231)">0.6</text>
     </g>
    </g>
    <g id="ytick_22">
     <g id="line2d_50">
      <g>
       <use xlink:href="#maf94978d97" x="277.901055" y="183.521822" style="stroke: #000000"/>
      </g>
     </g>
     <g id="text_58">
      <text style="font: 8px 'DejaVu Sans', 'Bitstream Vera Sans', 'Computer Modern Sans Serif', 'Lucida Grande', 'Verdana', 'Geneva', 'Lucid', 'Arial', 'Helvetica', 'Avant Garde', sans-serif; text-anchor: end" x="269.601055" y="186.561198" transform="rotate(-0 269.601055 186.561198)">0.8</text>
     </g>
    </g>
    <g id="ytick_23">
     <g id="line2d_51">
      <g>
       <use xlink:href="#maf94978d97" x="277.901055" y="156.18979" style="stroke: #000000"/>
      </g>
     </g>
     <g id="text_59">
      <text style="font: 8px 'DejaVu Sans', 'Bitstream Vera Sans', 'Computer Modern Sans Serif', 'Lucida Grande', 'Verdana', 'Geneva', 'Lucid', 'Arial', 'Helvetica', 'Avant Garde', sans-serif; text-anchor: end" x="269.601055" y="159.229165" transform="rotate(-0 269.601055 159.229165)">1.0</text>
     </g>
    </g>
    <g id="text_60">
     <text style="font: 9px 'DejaVu Sans', 'Bitstream Vera Sans', 'Computer Modern Sans Serif', 'Lucida Grande', 'Verdana', 'Geneva', 'Lucid', 'Arial', 'Helvetica', 'Avant Garde', sans-serif" transform="translate(240.928805 229.343112) rotate(-90)">Prob. Remember </text>
     <text style="font: 9px 'DejaVu Sans', 'Bitstream Vera Sans', 'Computer Modern Sans Serif', 'Lucida Grande', 'Verdana', 'Geneva', 'Lucid', 'Arial', 'Helvetica', 'Avant Garde', sans-serif" transform="translate(251.006836 216.519518) rotate(-90)"> Cued Stim.</text>
    </g>
   </g>
   <g id="LineCollection_1">
    <path d="M 314.420196 224.519872 
L 314.420196 156.18979 
" clip-path="url(#p19a4b2e268)" style="fill: none; stroke-dasharray: 4.44,1.92; stroke-dashoffset: 0; stroke: #808080; stroke-width: 1.2"/>
   </g>
   <g id="line2d_52">
    <path d="M 281.039665 186.751303 
L 281.249605 186.967841 
L 283.34901 187.089368 
L 283.978831 187.39078 
L 284.608652 187.748024 
L 285.028533 187.93811 
L 285.868295 188.117765 
L 286.288176 188.412123 
L 286.498116 188.373924 
L 287.9677 189.334515 
L 288.17764 189.599954 
L 289.017402 189.787934 
L 289.227342 189.850523 
L 289.437283 189.788819 
L 290.486985 190.259558 
L 290.696925 190.265073 
L 290.906866 190.388222 
L 291.536687 190.148725 
L 291.956568 190.370745 
L 292.166509 190.305186 
L 292.79633 190.543246 
L 293.00627 190.48269 
L 293.216211 190.606654 
L 293.426151 190.437942 
L 293.636092 190.576969 
L 294.055973 190.622795 
L 294.265913 190.711247 
L 294.895734 190.650223 
L 297.41502 191.379418 
L 301.193948 191.788821 
L 301.403888 191.71032 
L 301.613829 191.813765 
L 302.663531 191.813284 
L 303.083412 191.878713 
L 304.343055 192.181713 
L 304.972876 192.329167 
L 306.652399 192.755025 
L 307.912042 193.078168 
L 308.961744 193.44697 
L 309.381625 193.375543 
L 309.591566 193.450389 
L 310.221387 193.375167 
L 310.431328 193.497769 
L 310.851208 193.372679 
L 311.48103 193.709971 
L 314.000315 193.556029 
L 314.210256 193.457637 
L 314.630137 193.543173 
L 315.679839 193.346921 
L 316.09972 193.402253 
L 318.828945 193.288087 
L 319.248826 193.31698 
L 319.458767 193.182467 
L 319.668707 193.222935 
L 320.298529 193.07759 
L 321.978052 192.976866 
L 322.607874 193.028036 
L 323.027754 192.94035 
L 323.867516 193.043779 
L 325.127159 192.931786 
L 325.75698 192.932829 
L 326.596742 192.879683 
L 328.486206 192.862333 
L 328.696147 192.979599 
L 329.116027 192.850608 
L 329.535908 192.839156 
L 329.955789 192.730891 
L 330.37567 192.761814 
L 331.425372 192.605987 
L 333.944658 192.395258 
L 334.574479 192.6419 
L 334.99436 192.596409 
L 335.2043 192.598207 
L 335.624181 192.471045 
L 337.933526 192.225982 
L 338.563348 192.262365 
L 339.403109 192.194201 
L 339.82299 192.336794 
L 340.032931 192.213818 
L 340.662752 192.258937 
L 341.082633 192.178946 
L 342.132335 192.098664 
L 342.762157 192.114315 
L 343.182037 192.144423 
L 343.601918 192.203021 
L 343.811859 192.231792 
L 343.811859 192.231792 
" clip-path="url(#p19a4b2e268)" style="fill: none; stroke: #1f77b4; stroke-width: 1.2; stroke-linecap: square"/>
   </g>
   <g id="line2d_53">
    <path d="M 281.039665 187.907422 
L 281.459546 187.633917 
L 281.669486 187.62661 
L 282.089367 187.317149 
L 282.299307 187.347532 
L 282.719188 186.973659 
L 283.55895 186.591184 
L 283.768891 186.79613 
L 284.188772 186.712373 
L 284.398712 186.487904 
L 284.608652 186.465223 
L 284.818593 186.329378 
L 285.028533 186.453373 
L 285.448414 186.198801 
L 285.868295 185.988985 
L 287.337878 186.002458 
L 288.17764 185.61099 
L 288.597521 185.745259 
L 289.017402 185.804816 
L 289.437283 185.647482 
L 291.116806 185.848957 
L 291.536687 185.830715 
L 292.376449 185.777726 
L 292.79633 185.944834 
L 293.216211 185.678763 
L 293.426151 185.791805 
L 294.685794 185.5839 
L 295.315615 185.805636 
L 295.525556 185.760831 
L 295.735496 185.842805 
L 296.365318 185.700705 
L 296.575258 185.79959 
L 296.785198 185.743379 
L 296.995139 185.814801 
L 297.205079 186.024268 
L 298.044841 186.238243 
L 298.254782 186.097522 
L 298.464722 186.258799 
L 299.514424 186.06618 
L 299.934305 186.12083 
L 300.144246 186.116418 
L 300.354186 185.992035 
L 301.193948 186.27214 
L 301.403888 186.157654 
L 303.503293 186.519787 
L 303.713233 186.513795 
L 303.923174 186.369813 
L 304.343055 186.459329 
L 304.552995 186.367964 
L 304.762935 186.501719 
L 305.182816 186.560961 
L 305.812638 186.629553 
L 306.442459 186.525799 
L 307.492161 186.666373 
L 308.121983 186.390576 
L 308.541864 186.617593 
L 309.171685 186.436346 
L 309.591566 186.411987 
L 309.801506 186.29178 
L 313.370494 186.658194 
L 313.790375 186.509849 
L 314.420196 186.649706 
L 314.630137 186.649706 
L 315.050017 185.86748 
L 318.199124 181.52693 
L 318.828945 180.908269 
L 319.248826 180.515359 
L 319.458767 180.492199 
L 320.088588 179.906337 
L 321.348231 179.197849 
L 321.768112 178.78915 
L 323.027754 177.764737 
L 323.867516 177.440291 
L 324.287397 177.128536 
L 324.707278 177.015934 
L 325.75698 176.321395 
L 328.276266 175.137673 
L 328.486206 175.170831 
L 329.116027 174.925776 
L 330.585611 174.549044 
L 331.005491 174.372604 
L 335.2043 173.483077 
L 337.933526 173.070505 
L 339.403109 172.830664 
L 343.811859 172.160864 
L 343.811859 172.160864 
" clip-path="url(#p19a4b2e268)" style="fill: none; stroke: #ff7f0e; stroke-width: 1.2; stroke-linecap: square"/>
   </g>
   <g id="line2d_54">
    <path d="M 281.039665 187.640535 
L 281.459546 187.411276 
L 281.669486 187.018784 
L 281.879427 187.002961 
L 282.719188 186.189066 
L 284.608652 185.254733 
L 284.818593 185.3457 
L 285.028533 185.208585 
L 285.238474 185.205802 
L 285.448414 185.083161 
L 286.498116 185.073603 
L 286.708057 185.018747 
L 286.917997 185.134921 
L 288.17764 184.78517 
L 289.017402 184.852281 
L 289.227342 184.634754 
L 289.437283 184.625049 
L 289.647223 184.762413 
L 289.857164 184.748255 
L 290.277045 184.987413 
L 291.116806 184.891009 
L 291.536687 184.917734 
L 291.956568 184.787731 
L 292.376449 185.035538 
L 293.00627 184.869248 
L 293.426151 185.063309 
L 294.055973 184.724086 
L 294.475853 184.727653 
L 294.895734 184.609772 
L 295.315615 184.685095 
L 296.365318 184.84499 
L 296.575258 184.754802 
L 296.785198 184.914499 
L 296.995139 184.856321 
L 297.41502 185.033956 
L 297.834901 185.081724 
L 298.884603 185.253663 
L 299.094543 185.047386 
L 299.514424 185.296852 
L 301.613829 184.791635 
L 302.663531 184.89413 
L 302.873471 184.763459 
L 303.293352 184.914806 
L 303.503293 184.764879 
L 304.133114 184.795699 
L 304.343055 184.66407 
L 304.552995 184.668947 
L 304.762935 184.559379 
L 304.972876 184.720624 
L 305.392757 184.746657 
L 305.812638 184.854452 
L 306.232519 184.667879 
L 306.86234 184.767936 
L 307.07228 184.866256 
L 307.282221 184.76973 
L 307.912042 184.923859 
L 308.121983 184.821405 
L 308.331923 184.999983 
L 309.171685 184.828938 
L 309.801506 184.446684 
L 310.221387 184.492606 
L 310.431328 184.698681 
L 310.641268 184.690421 
L 310.851208 184.852524 
L 311.69097 184.686602 
L 312.110851 184.988567 
L 312.530732 184.801753 
L 312.740672 184.862555 
L 313.160553 184.744806 
L 313.790375 184.86404 
L 314.630137 184.825786 
L 315.259958 182.790051 
L 316.939481 178.254982 
L 317.359362 177.602973 
L 318.199124 176.041329 
L 320.088588 173.376513 
L 321.978052 171.716502 
L 322.607874 171.241692 
L 324.287397 170.149856 
L 327.436504 168.890833 
L 333.734717 167.375774 
L 336.254003 167.10552 
L 337.723586 166.978459 
L 339.82299 166.772578 
L 343.811859 166.475033 
L 343.811859 166.475033 
" clip-path="url(#p19a4b2e268)" style="fill: none; stroke: #2ca02c; stroke-width: 1.2; stroke-linecap: square"/>
   </g>
   <g id="LineCollection_2">
    <path d="M 314.420196 224.519872 
L 314.420196 156.18979 
" clip-path="url(#p19a4b2e268)" style="fill: none; stroke-dasharray: 4.44,1.92; stroke-dashoffset: 0; stroke: #808080; stroke-width: 1.2"/>
   </g>
   <g id="patch_33">
    <path d="M 277.901055 224.519872 
L 277.901055 156.18979 
" style="fill: none; stroke: #000000; stroke-linejoin: miter; stroke-linecap: square"/>
   </g>
   <g id="patch_34">
    <path d="M 346.950469 224.519872 
L 346.950469 156.18979 
" style="fill: none; stroke: #000000; stroke-linejoin: miter; stroke-linecap: square"/>
   </g>
   <g id="patch_35">
    <path d="M 277.901055 224.519872 
L 346.950469 224.519872 
" style="fill: none; stroke: #000000; stroke-linejoin: miter; stroke-linecap: square"/>
   </g>
   <g id="patch_36">
    <path d="M 277.901055 156.18979 
L 346.950469 156.18979 
" style="fill: none; stroke: #000000; stroke-linejoin: miter; stroke-linecap: square"/>
   </g>
   <g id="text_61">
    <text style="fill: #1f77b4; font: 5.5px 'DejaVu Sans', 'Bitstream Vera Sans', 'Computer Modern Sans Serif', 'Lucida Grande', 'Verdana', 'Geneva', 'Lucid', 'Arial', 'Helvetica', 'Avant Garde', sans-serif; text-anchor: start" x="301.823769" y="190.124101" transform="rotate(-0 301.823769 190.124101)">Control: 0.06</text>
   </g>
   <g id="text_62">
    <text style="fill: #ff7f0e; font: 5.5px 'DejaVu Sans', 'Bitstream Vera Sans', 'Computer Modern Sans Serif', 'Lucida Grande', 'Verdana', 'Geneva', 'Lucid', 'Arial', 'Helvetica', 'Avant Garde', sans-serif; text-anchor: start" x="301.823769" y="169.031453" transform="rotate(-0 301.823769 169.031453)">Control: 0.18</text>
   </g>
   <g id="text_63">
    <text style="fill: #2ca02c; font: 5.5px 'DejaVu Sans', 'Bitstream Vera Sans', 'Computer Modern Sans Serif', 'Lucida Grande', 'Verdana', 'Geneva', 'Lucid', 'Arial', 'Helvetica', 'Avant Garde', sans-serif; text-anchor: start" x="301.823769" y="163.905633" transform="rotate(-0 301.823769 163.905633)">Control: 0.3</text>
   </g>
   <g id="text_64">
    <text style="fill: #808080; font: 5.5px 'DejaVu Sans', 'Bitstream Vera Sans', 'Computer Modern Sans Serif', 'Lucida Grande', 'Verdana', 'Geneva', 'Lucid', 'Arial', 'Helvetica', 'Avant Garde', sans-serif; text-anchor: start" x="318.619005" y="204.020847" transform="rotate(-0 318.619005 204.020847)">Cue On</text>
   </g>
   <g id="text_65">
    <text style="font: 700 8px 'DejaVu Sans', 'Bitstream Vera Sans', 'Computer Modern Sans Serif', 'Lucida Grande', 'Verdana', 'Geneva', 'Lucid', 'Arial', 'Helvetica', 'Avant Garde', sans-serif; text-anchor: start" x="243.376348" y="149.356781" transform="rotate(-0 243.376348 149.356781)">G</text>
   </g>
   <g id="text_66">
    <text style="font: 9px 'DejaVu Sans', 'Bitstream Vera Sans', 'Computer Modern Sans Serif', 'Lucida Grande', 'Verdana', 'Geneva', 'Lucid', 'Arial', 'Helvetica', 'Avant Garde', sans-serif; text-anchor: middle" x="312.425762" y="150.18979" transform="rotate(-0 312.425762 150.18979)">Varying Control</text>
   </g>
  </g>
  <g id="axes_8">
   <g id="patch_37">
    <path d="M 398.770346 224.519872 
L 467.819759 224.519872 
L 467.819759 156.18979 
L 398.770346 156.18979 
z
" style="fill: #ffffff"/>
   </g>
   <g id="matplotlib.axis_15">
    <g id="xtick_16">
     <g id="line2d_55">
      <g>
       <use xlink:href="#mb30b3debdc" x="401.699015" y="224.519872" style="stroke: #000000"/>
      </g>
     </g>
     <g id="text_67">
      <text style="font: 8px 'DejaVu Sans', 'Bitstream Vera Sans', 'Computer Modern Sans Serif', 'Lucida Grande', 'Verdana', 'Geneva', 'Lucid', 'Arial', 'Helvetica', 'Avant Garde', sans-serif; text-anchor: middle" x="401.699015" y="238.898622" transform="rotate(-0 401.699015 238.898622)">0</text>
     </g>
    </g>
    <g id="xtick_17">
     <g id="line2d_56">
      <g>
       <use xlink:href="#mb30b3debdc" x="443.687104" y="224.519872" style="stroke: #000000"/>
      </g>
     </g>
     <g id="text_68">
      <text style="font: 8px 'DejaVu Sans', 'Bitstream Vera Sans', 'Computer Modern Sans Serif', 'Lucida Grande', 'Verdana', 'Geneva', 'Lucid', 'Arial', 'Helvetica', 'Avant Garde', sans-serif; text-anchor: middle" x="443.687104" y="238.898622" transform="rotate(-0 443.687104 238.898622)">200</text>
     </g>
    </g>
    <g id="text_69">
     <text style="font: 9px 'DejaVu Sans', 'Bitstream Vera Sans', 'Computer Modern Sans Serif', 'Lucida Grande', 'Verdana', 'Geneva', 'Lucid', 'Arial', 'Helvetica', 'Avant Garde', sans-serif; text-anchor: middle" x="433.295052" y="251.400966" transform="rotate(-0 433.295052 251.400966)">Time Step</text>
    </g>
   </g>
   <g id="matplotlib.axis_16">
    <g id="ytick_24">
     <g id="line2d_57">
      <g>
       <use xlink:href="#maf94978d97" x="398.770346" y="210.853855" style="stroke: #000000"/>
      </g>
     </g>
     <g id="text_70">
      <text style="font: 8px 'DejaVu Sans', 'Bitstream Vera Sans', 'Computer Modern Sans Serif', 'Lucida Grande', 'Verdana', 'Geneva', 'Lucid', 'Arial', 'Helvetica', 'Avant Garde', sans-serif; text-anchor: end" x="390.470346" y="213.893231" transform="rotate(-0 390.470346 213.893231)">0.6</text>
     </g>
    </g>
    <g id="ytick_25">
     <g id="line2d_58">
      <g>
       <use xlink:href="#maf94978d97" x="398.770346" y="183.521822" style="stroke: #000000"/>
      </g>
     </g>
     <g id="text_71">
      <text style="font: 8px 'DejaVu Sans', 'Bitstream Vera Sans', 'Computer Modern Sans Serif', 'Lucida Grande', 'Verdana', 'Geneva', 'Lucid', 'Arial', 'Helvetica', 'Avant Garde', sans-serif; text-anchor: end" x="390.470346" y="186.561198" transform="rotate(-0 390.470346 186.561198)">0.8</text>
     </g>
    </g>
    <g id="ytick_26">
     <g id="line2d_59">
      <g>
       <use xlink:href="#maf94978d97" x="398.770346" y="156.18979" style="stroke: #000000"/>
      </g>
     </g>
     <g id="text_72">
      <text style="font: 8px 'DejaVu Sans', 'Bitstream Vera Sans', 'Computer Modern Sans Serif', 'Lucida Grande', 'Verdana', 'Geneva', 'Lucid', 'Arial', 'Helvetica', 'Avant Garde', sans-serif; text-anchor: end" x="390.470346" y="159.229165" transform="rotate(-0 390.470346 159.229165)">1.0</text>
     </g>
    </g>
    <g id="text_73">
     <text style="font: 9px 'DejaVu Sans', 'Bitstream Vera Sans', 'Computer Modern Sans Serif', 'Lucida Grande', 'Verdana', 'Geneva', 'Lucid', 'Arial', 'Helvetica', 'Avant Garde', sans-serif" transform="translate(361.798096 229.343112) rotate(-90)">Prob. Remember </text>
     <text style="font: 9px 'DejaVu Sans', 'Bitstream Vera Sans', 'Computer Modern Sans Serif', 'Lucida Grande', 'Verdana', 'Geneva', 'Lucid', 'Arial', 'Helvetica', 'Avant Garde', sans-serif" transform="translate(371.876127 216.519518) rotate(-90)"> Cued Stim.</text>
    </g>
   </g>
   <g id="LineCollection_3">
    <path d="M 435.289486 224.519872 
L 435.289486 156.18979 
" clip-path="url(#pb3c8586c84)" style="fill: none; stroke-dasharray: 4.44,1.92; stroke-dashoffset: 0; stroke: #808080; stroke-width: 1.2"/>
   </g>
   <g id="line2d_60">
    <path d="M 401.908955 210.269323 
L 402.118896 210.316877 
L 402.538777 211.102213 
L 403.168598 211.590966 
L 403.378538 211.600829 
L 403.588479 211.426392 
L 404.00836 211.711831 
L 404.2183 211.625664 
L 404.428241 211.908154 
L 404.638181 211.867271 
L 404.848121 212.184316 
L 405.268002 211.968399 
L 406.527645 212.360474 
L 406.737586 212.185622 
L 407.367407 212.333124 
L 407.577347 212.256336 
L 407.997228 212.659455 
L 408.417109 212.752613 
L 409.256871 212.830154 
L 409.466811 212.68886 
L 409.886692 212.79797 
L 411.146335 213.140638 
L 411.776156 213.048484 
L 413.45568 213.046325 
L 413.875561 212.996108 
L 414.085501 213.080046 
L 414.505382 213.029468 
L 414.925263 213.068401 
L 415.135203 213.019591 
L 415.555084 213.114484 
L 415.974965 213.193526 
L 416.394846 213.315767 
L 417.444548 213.279106 
L 417.864429 213.427145 
L 418.07437 213.472668 
L 418.494251 213.33464 
L 424.582524 213.600142 
L 425.212345 213.601212 
L 427.73163 213.614544 
L 428.361452 213.592646 
L 440.747938 213.635274 
L 464.681149 213.635274 
L 464.681149 213.635274 
" clip-path="url(#pb3c8586c84)" style="fill: none; stroke: #1f77b4; stroke-width: 1.2; stroke-linecap: square"/>
   </g>
   <g id="line2d_61">
    <path d="M 401.908955 196.27204 
L 402.118896 196.069253 
L 402.328836 195.693844 
L 402.958657 195.829697 
L 403.378538 195.658739 
L 403.588479 195.734631 
L 404.428241 194.879467 
L 405.058062 194.915684 
L 405.268002 195.065548 
L 405.687883 195.015072 
L 405.897824 195.121298 
L 406.107764 194.977766 
L 406.317705 195.033083 
L 406.527645 194.92171 
L 407.157466 195.388827 
L 407.577347 195.410399 
L 407.787288 195.554574 
L 408.417109 195.549297 
L 408.83699 195.086826 
L 409.04693 194.886701 
L 409.466811 194.869764 
L 409.676752 195.160673 
L 410.096633 195.163099 
L 410.306573 195.047793 
L 410.936394 195.54994 
L 411.356275 195.492915 
L 411.776156 195.638829 
L 411.986097 195.509135 
L 412.196037 195.598014 
L 412.405978 195.420936 
L 412.615918 195.426245 
L 412.825859 195.788865 
L 414.085501 195.386145 
L 414.295442 195.292567 
L 414.505382 195.495909 
L 415.135203 195.380601 
L 415.555084 195.188126 
L 416.184906 195.451235 
L 416.604787 195.526693 
L 416.814727 195.460271 
L 417.654489 195.733909 
L 418.07437 195.783193 
L 418.494251 195.530153 
L 419.124072 195.448326 
L 419.334012 195.506082 
L 419.543953 195.697988 
L 420.383715 195.723011 
L 420.803596 195.913704 
L 422.063238 196.329802 
L 422.483119 196.158153 
L 424.792464 196.51167 
L 425.002405 196.406758 
L 425.212345 196.483574 
L 425.422285 196.397125 
L 426.052107 196.50238 
L 426.471988 196.770698 
L 426.681928 196.77553 
L 426.891869 196.958447 
L 427.52169 196.84798 
L 428.151511 197.253716 
L 428.991273 197.098461 
L 429.411154 197.028141 
L 429.831035 196.566287 
L 430.460856 196.559102 
L 430.670797 196.618309 
L 431.090678 196.414686 
L 431.300618 196.574154 
L 432.14038 196.42685 
L 432.35032 196.602428 
L 432.560261 196.59872 
L 433.400022 196.093833 
L 433.609963 196.228219 
L 434.029844 196.170731 
L 434.449725 196.225552 
L 434.659665 196.084806 
L 434.869606 196.286893 
L 435.499427 196.362807 
L 436.75907 193.438841 
L 437.178951 192.770422 
L 437.808772 191.873697 
L 438.018712 191.601255 
L 438.438593 190.83275 
L 441.5877 187.990863 
L 443.897045 186.353435 
L 444.316926 186.238774 
L 445.156688 185.820226 
L 445.996449 185.468308 
L 446.626271 185.20825 
L 447.256092 185.075108 
L 447.675973 184.94737 
L 448.515735 184.69023 
L 450.615139 184.145212 
L 451.03502 184.093324 
L 452.714544 183.803078 
L 453.974186 183.691691 
L 456.703412 183.433997 
L 459.642578 183.245606 
L 460.48234 183.19078 
L 462.161864 183.051239 
L 464.681149 182.939151 
L 464.681149 182.939151 
" clip-path="url(#pb3c8586c84)" style="fill: none; stroke: #ff7f0e; stroke-width: 1.2; stroke-linecap: square"/>
   </g>
   <g id="line2d_62">
    <path d="M 401.908955 187.640535 
L 402.328836 187.411276 
L 402.538777 187.018784 
L 402.748717 187.002961 
L 403.588479 186.189066 
L 405.477943 185.254733 
L 405.687883 185.3457 
L 405.897824 185.208585 
L 406.107764 185.205802 
L 406.317705 185.083161 
L 407.367407 185.073603 
L 407.577347 185.018747 
L 407.787288 185.134921 
L 409.04693 184.78517 
L 409.886692 184.852281 
L 410.096633 184.634754 
L 410.306573 184.625049 
L 410.516514 184.762413 
L 410.726454 184.748255 
L 411.146335 184.987413 
L 411.986097 184.891009 
L 412.405978 184.917734 
L 412.825859 184.787731 
L 413.245739 185.035538 
L 413.875561 184.869248 
L 414.295442 185.063309 
L 414.925263 184.724086 
L 415.345144 184.727653 
L 415.765025 184.609772 
L 416.184906 184.685095 
L 417.234608 184.84499 
L 417.444548 184.754802 
L 417.654489 184.914499 
L 417.864429 184.856321 
L 418.28431 185.033956 
L 418.704191 185.081724 
L 419.753893 185.253663 
L 419.963834 185.047386 
L 420.383715 185.296852 
L 422.483119 184.791635 
L 423.532821 184.89413 
L 423.742762 184.763459 
L 424.162643 184.914806 
L 424.372583 184.764879 
L 425.002405 184.795699 
L 425.212345 184.66407 
L 425.422285 184.668947 
L 425.632226 184.559379 
L 425.842166 184.720624 
L 426.262047 184.746657 
L 426.681928 184.854452 
L 427.101809 184.667879 
L 427.73163 184.767936 
L 427.941571 184.866256 
L 428.151511 184.76973 
L 428.781333 184.923859 
L 428.991273 184.821405 
L 429.201213 184.999983 
L 430.040975 184.828938 
L 430.670797 184.446684 
L 431.090678 184.492606 
L 431.300618 184.698681 
L 431.510558 184.690421 
L 431.720499 184.852524 
L 432.560261 184.686602 
L 432.980142 184.988567 
L 433.400022 184.801753 
L 433.609963 184.862555 
L 434.029844 184.744806 
L 434.659665 184.86404 
L 435.499427 184.825786 
L 436.129248 182.790051 
L 437.808772 178.254982 
L 438.228653 177.602973 
L 439.068415 176.041329 
L 440.957879 173.376513 
L 442.847343 171.716502 
L 443.477164 171.241692 
L 445.156688 170.149856 
L 448.305794 168.890833 
L 454.604008 167.375774 
L 457.123293 167.10552 
L 458.592876 166.978459 
L 460.692281 166.772578 
L 464.681149 166.475033 
L 464.681149 166.475033 
" clip-path="url(#pb3c8586c84)" style="fill: none; stroke: #2ca02c; stroke-width: 1.2; stroke-linecap: square"/>
   </g>
   <g id="patch_38">
    <path d="M 398.770346 224.519872 
L 398.770346 156.18979 
" style="fill: none; stroke: #000000; stroke-linejoin: miter; stroke-linecap: square"/>
   </g>
   <g id="patch_39">
    <path d="M 467.819759 224.519872 
L 467.819759 156.18979 
" style="fill: none; stroke: #000000; stroke-linejoin: miter; stroke-linecap: square"/>
   </g>
   <g id="patch_40">
    <path d="M 398.770346 224.519872 
L 467.819759 224.519872 
" style="fill: none; stroke: #000000; stroke-linejoin: miter; stroke-linecap: square"/>
   </g>
   <g id="patch_41">
    <path d="M 398.770346 156.18979 
L 467.819759 156.18979 
" style="fill: none; stroke: #000000; stroke-linejoin: miter; stroke-linecap: square"/>
   </g>
   <g id="text_74">
    <text style="fill: #1f77b4; font: 5.5px 'DejaVu Sans', 'Bitstream Vera Sans', 'Computer Modern Sans Serif', 'Lucida Grande', 'Verdana', 'Geneva', 'Lucid', 'Arial', 'Helvetica', 'Avant Garde', sans-serif; text-anchor: start" x="422.69306" y="211.585371" transform="rotate(-0 422.69306 211.585371)">Capacity: 5</text>
   </g>
   <g id="text_75">
    <text style="fill: #ff7f0e; font: 5.5px 'DejaVu Sans', 'Bitstream Vera Sans', 'Computer Modern Sans Serif', 'Lucida Grande', 'Verdana', 'Geneva', 'Lucid', 'Arial', 'Helvetica', 'Avant Garde', sans-serif; text-anchor: start" x="422.69306" y="180.609196" transform="rotate(-0 422.69306 180.609196)">Capacity: 13</text>
   </g>
   <g id="text_76">
    <text style="fill: #2ca02c; font: 5.5px 'DejaVu Sans', 'Bitstream Vera Sans', 'Computer Modern Sans Serif', 'Lucida Grande', 'Verdana', 'Geneva', 'Lucid', 'Arial', 'Helvetica', 'Avant Garde', sans-serif; text-anchor: start" x="422.69306" y="163.905633" transform="rotate(-0 422.69306 163.905633)">Capacity: 21</text>
   </g>
   <g id="text_77">
    <text style="fill: #808080; font: 5.5px 'DejaVu Sans', 'Bitstream Vera Sans', 'Computer Modern Sans Serif', 'Lucida Grande', 'Verdana', 'Geneva', 'Lucid', 'Arial', 'Helvetica', 'Avant Garde', sans-serif; text-anchor: start" x="439.488295" y="204.020847" transform="rotate(-0 439.488295 204.020847)">Cue On</text>
   </g>
   <g id="text_78">
    <text style="font: 700 8px 'DejaVu Sans', 'Bitstream Vera Sans', 'Computer Modern Sans Serif', 'Lucida Grande', 'Verdana', 'Geneva', 'Lucid', 'Arial', 'Helvetica', 'Avant Garde', sans-serif; text-anchor: start" x="364.245639" y="149.356781" transform="rotate(-0 364.245639 149.356781)">H</text>
   </g>
   <g id="text_79">
    <text style="font: 9px 'DejaVu Sans', 'Bitstream Vera Sans', 'Computer Modern Sans Serif', 'Lucida Grande', 'Verdana', 'Geneva', 'Lucid', 'Arial', 'Helvetica', 'Avant Garde', sans-serif; text-anchor: middle" x="433.295052" y="150.18979" transform="rotate(-0 433.295052 150.18979)">Varying Capacity</text>
   </g>
  </g>
 </g>
 <defs>
  <clipPath id="p5206e49ab6">
   <rect x="157.031765" y="20.111758" width="69.049413" height="68.330083"/>
  </clipPath>
  <clipPath id="p68c3f33ffd">
   <rect x="277.901055" y="20.111758" width="69.049413" height="68.330083"/>
  </clipPath>
  <clipPath id="pd6fff3423e">
   <rect x="398.770346" y="20.111758" width="69.049413" height="68.330083"/>
  </clipPath>
  <clipPath id="p291525005f">
   <rect x="41.724707" y="156.18979" width="69.049413" height="68.330082"/>
  </clipPath>
  <clipPath id="pc177d75cd0">
   <rect x="157.031765" y="156.18979" width="69.049413" height="68.330082"/>
  </clipPath>
  <clipPath id="p19a4b2e268">
   <rect x="277.901055" y="156.18979" width="69.049413" height="68.330082"/>
  </clipPath>
  <clipPath id="pb3c8586c84">
   <rect x="398.770346" y="156.18979" width="69.049413" height="68.330082"/>
  </clipPath>
 </defs>
</svg>
